solid Diamond_Airfoil
  facet normal 0.0000000000 0.0000000000 1.0000000000
    outer loop
      vertex 0.0000000000  0.0000000000 0.0000000000
      vertex 0.5000000000 -0.0702704174 0.0000000000
      vertex 1.0000000000  0.0000000000 0.0000000000
    endloop
  endfacet
  facet normal 0.0000000000 0.0000000000 1.0000000000
    outer loop
      vertex 0.0000000000 0.0000000000 0.0000000000
      vertex 1.0000000000 0.0000000000 0.0000000000
      vertex 0.5000000000 0.0702704174 0.0000000000
    endloop
  endfacet
endsolid Diamond_Airfoil
